<svg width="371" height="187" viewBox="0 0 371 187" fill="none" xmlns="http://www.w3.org/2000/svg">
<path d="M323.946 12.4229L323.946 12.4234C338.548 20.4834 349.961 31.5845 358.178 45.7221C366.391 59.8554 370.5 75.0429 370.5 91.276V93.4176C370.5 120.23 361.439 142.437 343.311 160C325.186 177.669 302.689 186.5 275.853 186.5C256.825 186.5 239.482 181.366 223.837 171.097C208.542 161.082 195.733 146.516 185.403 127.421C174.946 146.731 162.073 161.353 146.773 171.262C131.388 181.421 114.239 186.5 95.3411 186.5C77.6258 186.5 61.4617 182.473 46.8591 174.412L46.8574 174.411C32.3856 166.351 21.0379 155.25 12.8223 141.113C4.60856 126.98 0.5 111.792 0.5 95.5592V91.6055C0.5 74.934 4.67294 59.5255 13.0186 45.3896C21.3639 31.2543 32.7765 20.2084 47.249 12.2581L47.2516 12.2567C61.7251 4.41621 77.8883 0.5 95.7301 0.5C114.499 0.5 131.582 5.52411 146.967 15.5725C162.139 25.4817 174.948 40.1043 185.403 59.4142C195.733 40.3193 208.542 25.7526 223.838 15.7375C239.353 5.57925 256.566 0.5 275.464 0.5C293.307 0.5 309.471 4.47168 323.946 12.4229ZM135.476 41.7405L135.474 41.7387C123.627 31.4881 110.385 26.3753 95.7301 26.3753C78.222 26.3753 64.1633 32.3651 53.5041 44.3291C42.8381 56.3005 37.4858 71.9337 37.4858 91.276V94.2413C37.4858 114.469 42.8416 130.539 53.5041 142.506C64.1649 154.472 78.0949 160.46 95.3411 160.46C105.624 160.46 115.46 157.794 124.855 152.453L124.859 152.451C134.248 147.222 142.624 139.371 149.98 128.879C157.329 118.397 162.548 107.761 165.645 96.9716V90.204L163.534 83.8652C156.815 66.0308 147.458 51.9973 135.476 41.7405ZM317.493 142.18L317.494 142.178C328.163 130.095 333.514 114.569 333.514 95.5592V92.7587C333.514 72.6421 328.159 56.5706 317.494 44.4921L317.492 44.4899C306.963 32.4187 292.971 26.3753 275.464 26.3753C265.179 26.3753 255.408 28.9874 246.144 34.2181C236.884 39.4458 228.443 47.4063 220.825 58.1214C213.346 68.9335 208.193 79.6225 205.355 90.1888V96.9585L207.074 101.974C207.074 101.976 207.075 101.978 207.076 101.981C213.926 120.366 223.413 134.673 235.522 144.928L235.524 144.93C247.631 155.292 261.069 160.46 275.853 160.46C292.966 160.46 306.83 154.365 317.493 142.18Z" stroke="white"/>
</svg>
