<svg width="247" height="118" viewBox="0 0 247 118" fill="none" xmlns="http://www.w3.org/2000/svg">
<path d="M186.992 0.447994C198.128 0.447994 208.112 3.04 216.944 8.224C225.968 13.216 233.072 20.128 238.256 28.96C243.44 37.792 246.032 47.776 246.032 58.912C246.032 70.048 243.44 80.128 238.256 89.152C233.072 98.176 225.968 105.28 216.944 110.464C208.112 115.456 198.128 117.952 186.992 117.952C172.016 117.952 159.632 114.88 149.84 108.736C140.24 102.4 131.504 93.664 123.632 82.528C115.76 93.664 107.024 102.4 97.424 108.736C87.824 114.88 75.44 117.952 60.272 117.952C49.136 117.952 39.056 115.456 30.032 110.464C21.008 105.28 13.904 98.272 8.72 89.44C3.536 80.416 0.944001 70.336 0.944001 59.2C0.944001 48.064 3.536 38.08 8.72 29.248C13.904 20.224 21.008 13.216 30.032 8.224C39.056 3.04 49.136 0.447994 60.272 0.447994C75.44 0.447994 87.824 3.61599 97.424 9.95199C107.024 16.096 115.76 24.736 123.632 35.872C131.504 24.736 140.24 16.096 149.84 9.95199C159.632 3.61599 172.016 0.447994 186.992 0.447994ZM62.864 91.168C73.04 91.168 81.488 88.48 88.208 83.104C95.12 77.536 101.936 69.568 108.656 59.2C101.936 48.832 95.12 40.96 88.208 35.584C81.488 30.016 73.04 27.232 62.864 27.232C53.264 27.232 45.296 30.304 38.96 36.448C32.816 42.4 29.744 49.984 29.744 59.2C29.744 68.416 32.816 76.096 38.96 82.24C45.296 88.192 53.264 91.168 62.864 91.168ZM184.112 91.168C193.52 91.168 201.392 88.096 207.728 81.952C214.064 75.808 217.232 68.128 217.232 58.912C217.232 49.888 214.064 42.4 207.728 36.448C201.392 30.304 193.52 27.232 184.112 27.232C173.936 27.232 165.392 30.016 158.48 35.584C151.76 40.96 145.136 48.832 138.608 59.2C145.136 69.568 151.76 77.536 158.48 83.104C165.392 88.48 173.936 91.168 184.112 91.168Z" fill="black"/>
</svg>
