<svg width="512" height="512" viewBox="0 0 512 512" fill="none" xmlns="http://www.w3.org/2000/svg">
<rect width="512" height="512" fill="white"/>
<rect width="512" height="512" fill="white"/>
<path d="M240.339 152.208C217.934 163.245 204.357 175.971 208.542 189.174C216.838 215.346 368.878 199.27 285.465 257.683C184.179 328.612 76.3308 296.145 66.9558 253.597C50.4945 178.888 143.306 158.989 240.339 152.208ZM240.339 152.208C309.31 118.232 461.941 100.259 437.628 133.645C425.01 150.971 330.838 145.884 240.339 152.208ZM208.33 180.306C202.356 194.032 200.706 297.047 268.417 268.622M279.04 262.09C380.036 264.478 417.949 258.975 437.385 235.526C466.814 200.023 444.824 129.546 439.325 124.048M67.5384 219.998C58.7179 249.953 54.6957 295.273 69.2907 337.241C83.3606 377.699 143.231 414.023 213.834 386.503C277.793 361.573 303.855 290.582 303.183 262.577M117.401 293.315C134.365 274.994 179.501 240.933 216.307 253.961" stroke="black" stroke-width="4"/>
</svg>
