<svg width="2141" height="2121" viewBox="0 0 2141 2121" fill="none" xmlns="http://www.w3.org/2000/svg">
<path d="M3 211.5C358 -19.5006 569.166 673.282 987.5 247.5C1521 -295.5 1738.5 274.5 2138 78.4998" stroke="black" stroke-width="10"/>
<path d="M3 402.742C358 171.741 569.166 864.524 987.5 438.742C1521 -104.258 1738.5 465.742 2138 269.742" stroke="black" stroke-width="10"/>
<path d="M3 594.742C358 363.741 569.166 1056.52 987.5 630.742C1521 87.7419 1738.5 657.742 2138 461.742" stroke="black" stroke-width="10"/>
<path d="M3 785.742C358 554.741 569.166 1247.52 987.5 821.742C1521 278.742 1738.5 848.742 2138 652.742" stroke="black" stroke-width="10"/>
<path d="M3 977.742C358 746.741 569.166 1439.52 987.5 1013.74C1521 470.742 1738.5 1040.74 2138 844.742" stroke="black" stroke-width="10"/>
<path d="M3 1168.74C358 937.741 569.166 1630.52 987.5 1204.74C1521 661.742 1738.5 1231.74 2138 1035.74" stroke="black" stroke-width="10"/>
<path d="M3 1361.74C358 1130.74 569.166 1823.52 987.5 1397.74C1521 854.742 1738.5 1424.74 2138 1228.74" stroke="black" stroke-width="10"/>
<path d="M3 1554.74C358 1323.74 569.166 2016.52 987.5 1590.74C1521 1047.74 1738.5 1617.74 2138 1421.74" stroke="black" stroke-width="10"/>
<path d="M3 1745.74C358 1514.74 569.166 2207.52 987.5 1781.74C1521 1238.74 1738.5 1808.74 2138 1612.74" stroke="black" stroke-width="10"/>
<path d="M3 1937.74C358 1706.74 569.166 2399.52 987.5 1973.74C1521 1430.74 1738.5 2000.74 2138 1804.74" stroke="black" stroke-width="10"/>
</svg>
